# This file uses centimeters as units for non-parametric coordinates.

mtllib obIzq.mtl
g default
v -2.118213 0.000000 1.390900
v -1.890022 0.000000 1.390900
v -2.118213 2.443390 1.537280
v -1.890022 2.443390 1.537280
v -2.118213 2.446206 -1.542910
v -1.890022 2.446206 -1.542910
v -2.118213 0.000000 -1.390901
v -1.890022 0.000000 -1.390901
v -2.118213 2.772745 -0.667495
v -1.890022 2.772745 -0.667495
v -1.890022 0.000000 -0.701275
v -2.118213 0.000000 -0.701275
v -2.118213 2.767115 0.656062
v -1.890022 2.767115 0.656062
v -1.890022 0.000000 0.619467
v -2.118213 0.000000 0.619467
v -2.118213 2.182752 1.723069
v -1.890022 2.182752 1.723069
v -1.890022 2.098302 0.619467
v -1.890022 2.071443 -0.722336
v -1.890022 2.179937 -1.725884
v -2.118213 2.179937 -1.725884
v -2.118213 2.071443 -0.722336
v -2.118213 2.098302 0.619467
v -2.118213 0.778486 1.728699
v -1.890022 0.778486 1.728699
v -1.890022 0.730631 0.619467
v -1.890022 0.485442 -0.630051
v -1.890022 0.784115 -1.708994
v -2.118213 0.784115 -1.708994
v -2.118213 0.485442 -0.630051
v -2.118213 0.730631 0.619467
v -2.118213 0.331822 1.424680
v -1.890022 0.331822 1.424680
v -1.890022 0.331822 0.619467
v -1.890022 0.331822 -0.701275
v -1.890022 0.382492 -1.413420
v -2.118213 0.382492 -1.413420
v -2.118213 0.331822 -0.701275
v -2.118213 0.331822 0.619467
v -2.118213 0.000000 -1.303588
v -1.890022 0.000000 -1.303588
v -1.890022 0.376076 -1.323257
v -1.890022 0.777344 -1.581409
v -1.890022 2.169600 -1.596161
v -1.890022 2.487548 -1.432076
v -2.118213 2.487548 -1.432076
v -2.118213 2.169600 -1.596161
v -2.118213 0.777344 -1.581409
v -2.118213 0.376076 -1.323257
v -2.118213 2.416351 -1.563425
v -1.890022 2.416351 -1.563425
v -1.890022 2.451900 -1.450473
v -1.890022 2.697126 -0.671283
v -1.890022 2.692127 0.651959
v -1.890022 2.414167 1.558111
v -2.118213 2.414167 1.558111
v -2.118213 2.692127 0.651959
v -2.118213 2.697126 -0.671283
v -2.118213 2.451900 -1.450473
v -2.118213 2.474737 1.451954
v -1.890022 2.474737 1.451954
v -1.890022 2.441082 1.470370
v -1.890022 2.174574 1.616210
v -1.890022 0.773852 1.621295
v -1.890022 0.331822 1.346714
v -1.890022 0.000000 1.316204
v -2.118213 0.000000 1.316204
v -2.118213 0.331822 1.346713
v -2.118213 0.773852 1.621295
v -2.118213 2.174574 1.616210
v -2.118213 2.441082 1.470370
v -2.118213 0.055086 1.396508
v -1.890022 0.055086 1.396508
v -1.890022 0.055086 1.321269
v -1.890022 0.055086 0.619467
v -1.890022 0.055086 -0.701275
v -1.890022 0.062433 -1.306854
v -1.890022 0.063497 -1.394639
v -2.118213 0.063497 -1.394639
v -2.118213 0.062433 -1.306854
v -2.118213 0.055086 -0.701275
v -2.118213 0.055086 0.619467
v -2.118213 0.055086 1.321269
v -1.890022 0.000000 0.020401
v -1.890022 0.055086 0.020401
v -1.890022 0.331822 0.020401
v -1.890022 0.730631 0.020401
v -1.890022 2.098302 0.020401
v -1.890022 2.694394 0.051759
v -1.890022 2.769669 0.055719
v -2.118213 2.769669 0.055719
v -2.118213 2.694394 0.051759
v -2.118213 2.098302 0.020401
v -2.118213 0.730631 0.020401
v -2.118213 0.331822 0.020401
v -2.118213 0.055086 0.020401
v -2.118213 0.000000 0.020401
v -1.890022 1.396358 0.619467
v -1.890022 1.455668 1.618820
v -1.890022 1.462026 1.725959
v -2.118213 1.462026 1.725959
v -2.118213 1.455668 1.618819
v -2.118213 1.396358 0.619467
v -2.118213 1.396358 0.020401
v -2.118213 1.443542 -0.223986
v -2.118213 1.455039 -1.588590
v -2.118213 1.463546 -1.717216
v -1.890022 1.463546 -1.717216
v -1.890022 1.455039 -1.588589
v -1.890022 1.443542 -0.223986
v -1.890022 1.396358 0.020401
vt 0.375000 0.000000
vt 0.625000 0.000000
vt 0.375000 0.250000
vt 0.625000 0.250000
vt 0.375000 0.500000
vt 0.625000 0.500000
vt 0.375000 0.750000
vt 0.625000 0.750000
vt 0.375000 1.000000
vt 0.625000 1.000000
vt 0.875000 0.000000
vt 0.875000 0.250000
vt 0.125000 0.000000
vt 0.125000 0.250000
vt 0.186977 0.250000
vt 0.375000 0.438024
vt 0.625000 0.438024
vt 0.813024 0.250000
vt 0.625000 0.811977
vt 0.813024 0.000000
vt 0.186977 0.000000
vt 0.375000 0.811977
vt 0.305671 0.250000
vt 0.375000 0.319329
vt 0.625000 0.319329
vt 0.694329 0.250000
vt 0.625000 0.930671
vt 0.694329 0.000000
vt 0.305671 0.000000
vt 0.375000 0.930671
vt 0.375000 0.216689
vt 0.625000 0.216689
vt 0.694329 0.216689
vt 0.813024 0.216689
vt 0.625000 0.533311
vt 0.875000 0.216689
vt 0.125000 0.216689
vt 0.375000 0.533311
vt 0.186977 0.216689
vt 0.305671 0.216689
vt 0.375000 0.075451
vt 0.625000 0.075451
vt 0.694329 0.075451
vt 0.813023 0.075451
vt 0.625000 0.674549
vt 0.875000 0.075451
vt 0.125000 0.075451
vt 0.375000 0.674549
vt 0.186976 0.075451
vt 0.305671 0.075451
vt 0.375000 0.034267
vt 0.625000 0.034267
vt 0.694329 0.034267
vt 0.813023 0.034267
vt 0.625000 0.715733
vt 0.875000 0.034267
vt 0.125000 0.034267
vt 0.375000 0.715733
vt 0.186977 0.034267
vt 0.305671 0.034267
vt 0.132847 0.000000
vt 0.375000 0.757847
vt 0.625000 0.757847
vt 0.867153 0.000000
vt 0.867153 0.034267
vt 0.867153 0.075451
vt 0.867153 0.216689
vt 0.625000 0.492153
vt 0.867153 0.250000
vt 0.132847 0.250000
vt 0.375000 0.492153
vt 0.132847 0.216689
vt 0.132847 0.075451
vt 0.132847 0.034267
vt 0.125000 0.246265
vt 0.375000 0.503735
vt 0.625000 0.503735
vt 0.875000 0.246265
vt 0.867153 0.246265
vt 0.813024 0.246265
vt 0.694329 0.246265
vt 0.625000 0.246265
vt 0.375000 0.246265
vt 0.305671 0.246265
vt 0.186977 0.246265
vt 0.132847 0.246265
vt 0.368287 0.250000
vt 0.375000 0.256713
vt 0.625000 0.256713
vt 0.631713 0.250000
vt 0.631713 0.246265
vt 0.631713 0.216689
vt 0.631713 0.075451
vt 0.631713 0.034267
vt 0.625000 0.993287
vt 0.631713 0.000000
vt 0.368287 0.000000
vt 0.375000 0.993287
vt 0.368287 0.034267
vt 0.368287 0.075451
vt 0.368287 0.216689
vt 0.368287 0.246265
vt 0.375000 0.005689
vt 0.625000 0.005689
vt 0.631713 0.005689
vt 0.694329 0.005689
vt 0.813023 0.005689
vt 0.867153 0.005689
vt 0.625000 0.744311
vt 0.875000 0.005689
vt 0.125000 0.005689
vt 0.375000 0.744311
vt 0.132847 0.005689
vt 0.186977 0.005689
vt 0.305671 0.005689
vt 0.368287 0.005689
vt 0.625000 0.876833
vt 0.748167 0.000000
vt 0.748167 0.005689
vt 0.748167 0.034267
vt 0.748167 0.075451
vt 0.748167 0.216689
vt 0.748167 0.246265
vt 0.625000 0.373167
vt 0.748167 0.250000
vt 0.251833 0.250000
vt 0.375000 0.373167
vt 0.251833 0.246265
vt 0.251833 0.216689
vt 0.251833 0.075451
vt 0.251833 0.034267
vt 0.251833 0.005689
vt 0.251833 0.000000
vt 0.375000 0.876833
vt 0.694329 0.144200
vt 0.631713 0.144200
vt 0.625000 0.144200
vt 0.375000 0.144200
vt 0.368287 0.144200
vt 0.305671 0.144200
vt 0.251833 0.144200
vt 0.186976 0.144200
vt 0.132847 0.144200
vt 0.125000 0.144200
vt 0.375000 0.605800
vt 0.625000 0.605800
vt 0.875000 0.144200
vt 0.867153 0.144200
vt 0.813023 0.144200
vt 0.748167 0.144200
vn 0.000000 0.173608 0.984815
vn 0.000000 0.173608 0.984815
vn 0.000000 0.580449 0.814296
vn 0.000000 0.580449 0.814296
vn 0.000000 0.982492 -0.186304
vn 0.000000 0.982492 -0.186304
vn 0.000000 0.936941 -0.349489
vn 0.000000 0.936941 -0.349489
vn 0.000000 0.566349 -0.824166
vn 0.000000 0.566349 -0.824166
vn 0.000000 0.159346 -0.987223
vn 0.000000 0.159346 -0.987223
vn 0.000000 -1.000000 0.000000
vn 0.000000 -1.000000 0.000000
vn 0.000000 -1.000000 0.000000
vn 0.000000 -1.000000 0.000000
vn 1.000000 0.000000 0.000000
vn 1.000000 -0.000000 0.000000
vn 1.000000 -0.000000 0.000000
vn 1.000000 0.000000 0.000000
vn -1.000000 0.000000 0.000000
vn -1.000000 0.000000 0.000000
vn -1.000000 0.000000 0.000000
vn -1.000000 0.000000 0.000000
vn 0.000000 0.978410 0.206673
vn 0.000000 0.978410 0.206673
vn 0.000000 0.999991 0.004253
vn 0.000000 0.999991 0.004253
vn 1.000000 -0.000000 0.000000
vn 1.000000 0.000000 0.000000
vn 1.000000 0.000000 0.000000
vn 1.000000 0.000000 0.000000
vn 0.000000 -1.000000 0.000000
vn 0.000000 -1.000000 0.000000
vn 0.000000 -1.000000 0.000000
vn 0.000000 -1.000000 0.000000
vn -1.000000 0.000000 0.000000
vn -1.000000 0.000000 0.000000
vn -1.000000 0.000000 0.000000
vn -1.000000 0.000000 0.000000
vn 0.000000 0.938666 0.344829
vn 0.000000 0.938666 0.344829
vn 1.000000 0.000000 0.000000
vn 1.000000 0.000000 0.000000
vn 0.000000 -1.000000 0.000000
vn 0.000000 -1.000000 0.000000
vn -1.000000 0.000000 0.000000
vn -1.000000 0.000000 0.000000
vn 0.000000 -0.257575 0.966258
vn 0.000000 -0.257575 0.966258
vn 0.000000 0.004009 0.999992
vn 0.000000 0.004009 0.999992
vn 1.000000 0.000000 0.000000
vn 1.000000 0.000000 0.000000
vn 1.000000 0.000000 0.000000
vn 1.000000 -0.000000 0.000000
vn 1.000000 -0.000000 0.000000
vn 1.000000 0.000000 0.000000
vn 0.000000 -0.012099 -0.999927
vn 0.000000 -0.012099 -0.999927
vn 0.000000 -0.270538 -0.962709
vn 0.000000 -0.270538 -0.962709
vn -1.000000 0.000000 0.000000
vn -1.000000 0.000000 0.000000
vn -1.000000 0.000000 0.000000
vn -1.000000 0.000000 0.000000
vn -1.000000 0.000000 0.000000
vn -1.000000 -0.000000 0.000000
vn 0.000000 -0.417312 0.908763
vn 0.000000 -0.417312 0.908763
vn 1.000000 0.000000 0.000000
vn 1.000000 -0.000000 0.000000
vn 1.000000 0.000000 0.000000
vn 1.000000 0.000000 0.000000
vn 1.000000 0.000000 0.000000
vn 1.000000 0.000000 0.000000
vn 1.000000 0.000000 0.000000
vn 0.000000 -0.399842 -0.916584
vn 0.000000 -0.399842 -0.916584
vn -1.000000 0.000000 0.000000
vn -1.000000 0.000000 0.000000
vn -1.000000 0.000000 0.000000
vn -1.000000 0.000000 0.000000
vn -1.000000 0.000000 0.000000
vn -1.000000 0.000000 0.000000
vn -1.000000 0.000000 0.000000
vn 0.000000 -0.101279 0.994858
vn 0.000000 -0.101279 0.994858
vn 1.000000 0.000000 0.000000
vn 1.000000 0.000000 0.000000
vn 1.000000 0.000000 0.000000
vn 1.000000 0.000000 0.000000
vn 1.000000 0.000000 0.000000
vn 0.000000 -0.058775 -0.998271
vn 0.000000 -0.058775 -0.998271
vn -1.000000 -0.000000 0.000000
vn -1.000000 0.000000 0.000000
vn -1.000000 0.000000 0.000000
vn -1.000000 -0.000000 0.000000
vn -1.000000 0.000000 0.000000
vn 0.000000 -1.000000 0.000000
vn 0.000000 -1.000000 0.000000
vn 1.000000 0.000000 0.000000
vn 1.000000 0.000000 0.000000
vn 1.000000 0.000000 0.000000
vn 1.000000 0.000000 0.000000
vn 1.000000 0.000000 0.000000
vn 1.000000 0.000000 0.000000
vn 1.000000 0.000000 0.000000
vn 0.000000 0.936941 -0.349487
vn 0.000000 0.936941 -0.349487
vn -1.000000 0.000000 0.000000
vn -1.000000 -0.000000 0.000000
vn -1.000000 0.000000 0.000000
vn -1.000000 0.000000 0.000000
vn -1.000000 0.000000 0.000000
vn -1.000000 0.000000 0.000000
vn -1.000000 -0.000000 0.000000
vn 0.000000 0.566343 -0.824170
vn 0.000000 0.566343 -0.824170
vn 1.000000 0.000000 0.000000
vn 1.000000 0.000000 0.000000
vn 1.000000 0.000000 0.000000
vn 1.000000 0.000000 0.000000
vn 1.000000 0.000000 0.000000
vn 1.000000 0.000000 0.000000
vn 0.000000 0.580442 0.814302
vn 0.000000 0.580442 0.814302
vn -1.000000 0.000000 0.000000
vn -1.000000 0.000000 0.000000
vn -1.000000 0.000000 0.000000
vn -1.000000 -0.000000 0.000000
vn -1.000000 0.000000 0.000000
vn -1.000000 -0.000000 0.000000
vn 0.000000 0.938664 0.344834
vn 0.000000 0.938664 0.344834
vn 1.000000 0.000000 0.000000
vn 1.000000 0.000000 0.000000
vn 1.000000 0.000000 0.000000
vn 1.000000 0.000000 0.000000
vn 1.000000 0.000000 0.000000
vn 1.000000 0.000000 0.000000
vn 1.000000 0.000000 0.000000
vn 0.000000 -1.000000 0.000000
vn 0.000000 -1.000000 0.000000
vn -1.000000 0.000000 0.000000
vn -1.000000 0.000000 0.000000
vn -1.000000 0.000000 0.000000
vn -1.000000 -0.000000 0.000000
vn -1.000000 0.000000 0.000000
vn -1.000000 0.000000 0.000000
vn -1.000000 0.000000 0.000000
vn 0.000000 -0.101278 0.994858
vn 0.000000 -0.101278 0.994858
vn 1.000000 0.000000 0.000000
vn 1.000000 0.000000 0.000000
vn 1.000000 0.000000 0.000000
vn 1.000000 0.000000 0.000000
vn 1.000000 0.000000 0.000000
vn 1.000000 0.000000 0.000000
vn 1.000000 0.000000 0.000000
vn 0.000000 -0.058774 -0.998271
vn 0.000000 -0.058774 -0.998271
vn -1.000000 -0.000000 0.000000
vn -1.000000 0.000000 0.000000
vn -1.000000 0.000000 0.000000
vn -1.000000 0.000000 0.000000
vn -1.000000 -0.000000 0.000000
vn -1.000000 -0.000000 0.000000
vn -1.000000 -0.000000 0.000000
vn 1.000000 0.000000 0.000000
vn -1.000000 0.000000 0.000000
vn 0.000000 -0.621670 -0.783279
vn 0.000000 -0.621670 -0.783279
vn 0.000000 -0.621670 -0.783279
vn 0.000000 -0.621670 -0.783279
vn 0.000000 0.390223 -0.920720
vn 0.000000 0.390223 -0.920720
vn 0.000000 0.390223 -0.920720
vn 0.000000 0.390223 -0.920720
vn 0.000000 0.956011 0.293330
vn 0.000000 0.956011 0.293330
vn 0.000000 0.956011 0.293330
vn 0.000000 0.956011 0.293330
vn -0.000001 0.010595 0.999944
vn -0.000001 0.010595 0.999944
vn -0.000001 0.010595 0.999944
vn -0.000001 0.010595 0.999944
vn -0.000001 0.010595 0.999944
vn -0.000001 0.010595 0.999944
vn -0.000001 0.010595 0.999944
vn -0.000001 0.010595 0.999944
vn 0.000000 -0.993750 -0.111629
vn 0.000000 -0.993750 -0.111629
vn 0.000000 -0.993750 -0.111629
vn 0.000000 -0.993750 -0.111629
s 1
g pCube118
usemtl phong1SG
f 17/31/1 18/32/2 56/82/3 57/83/4
s 2
f 9/16/5 10/17/6 46/68/7 47/71/8
s 3
f 51/76/9 52/77/10 21/35/11 22/38/12
s 4
f 41/62/13 42/63/14 11/19/15 12/22/16
s 5
f 53/79/17 54/80/18 20/34/19 45/67/20
s 6
f 59/85/21 60/86/22 48/72/23 23/39/24
s 2
f 13/24/25 14/25/26 91/124/27 92/127/28
s 5
f 89/122/29 90/123/30 55/81/31 19/33/32
s 4
f 98/134/33 85/117/34 15/27/35 16/30/36
s 6
f 58/84/37 93/128/38 94/129/39 24/40/40
s 2
f 61/88/41 62/89/42 14/25/26 13/24/25
s 5
f 63/91/43 64/92/44 19/33/32 55/81/31
s 4
f 16/30/36 15/27/35 67/95/45 68/98/46
s 6
f 71/101/47 72/102/48 58/84/37 24/40/40
s 1
f 25/41/49 26/42/50 101/137/51 102/138/52
s 5
f 99/135/53 100/136/54 65/93/55 27/43/56
f 88/121/57 112/150/58 99/135/53 27/43/56
s 3
f 108/145/59 109/146/60 29/45/61 30/48/62
s 6
f 104/140/63 105/141/64 95/130/65 32/50/66
f 70/100/67 103/139/68 104/140/63 32/50/66
s 1
f 33/51/69 34/52/70 26/42/50 25/41/49
s 5
f 65/93/55 66/94/71 35/53/72 27/43/56
f 87/120/73 88/121/57 27/43/56 35/53/72
f 43/65/74 44/66/75 28/44/76 36/54/77
s 3
f 30/48/62 29/45/61 37/55/78 38/58/79
s 6
f 49/73/80 50/74/81 39/59/82 31/49/83
f 32/50/66 95/130/65 96/131/84 40/60/85
f 69/99/86 70/100/67 32/50/66 40/60/85
s 1
f 73/103/87 74/104/88 34/52/70 33/51/69
s 5
f 66/94/71 75/105/89 76/106/90 35/53/72
f 86/119/91 87/120/73 35/53/72 76/106/90
f 77/107/92 78/108/93 43/65/74 36/54/77
s 3
f 38/58/79 37/55/78 79/109/94 80/112/95
s 6
f 50/74/81 81/113/96 82/114/97 39/59/82
f 40/60/85 96/131/84 97/132/98 83/115/99
f 83/115/99 84/116/100 69/99/86 40/60/85
s 4
f 7/7/101 8/8/102 42/63/14 41/62/13
s 5
f 37/56/103 43/65/74 78/108/93 79/110/104
f 29/46/105 44/66/75 43/65/74 37/56/103
f 109/147/106 110/148/107 44/66/75 29/46/105
f 52/78/108 53/79/17 45/67/20 21/36/109
s 2
f 47/71/8 46/68/7 6/6/110 5/5/111
s 6
f 22/37/112 48/72/23 60/86/22 51/75/113
f 30/47/114 49/73/80 107/143/115 108/144/116
f 38/57/117 50/74/81 49/73/80 30/47/114
f 80/111/118 81/113/96 50/74/81 38/57/117
s 3
f 5/5/119 6/6/120 52/77/10 51/76/9
s 5
f 46/69/121 53/79/17 52/78/108 6/12/122
f 10/18/123 54/80/18 53/79/17 46/69/121
f 14/26/124 55/81/31 90/123/30 91/125/125
f 62/90/126 63/91/43 55/81/31 14/26/124
s 1
f 57/83/4 56/82/3 4/4/127 3/3/128
s 6
f 13/23/129 58/84/37 72/102/48 61/87/130
f 92/126/131 93/128/38 58/84/37 13/23/129
f 47/70/132 60/86/22 59/85/21 9/15/133
f 51/75/113 60/86/22 47/70/132 5/14/134
s 2
f 3/3/135 4/4/136 62/89/42 61/88/41
s 5
f 56/82/137 63/91/43 62/90/126 4/4/138
f 18/32/139 64/92/44 63/91/43 56/82/137
f 26/42/140 65/93/55 100/136/54 101/137/141
f 34/52/142 66/94/71 65/93/55 26/42/140
f 74/104/143 75/105/89 66/94/71 34/52/142
s 4
f 68/98/46 67/95/45 2/10/144 1/9/145
s 6
f 33/51/146 69/99/86 84/116/100 73/103/147
f 25/41/148 70/100/67 69/99/86 33/51/146
f 102/138/149 103/139/68 70/100/67 25/41/148
f 57/83/150 72/102/48 71/101/47 17/31/151
f 61/87/130 72/102/48 57/83/150 3/3/152
s 1
f 1/1/153 2/2/154 74/104/88 73/103/87
s 5
f 2/2/155 67/96/156 75/105/89 74/104/143
f 76/106/90 75/105/89 67/96/156 15/28/157
f 85/118/158 86/119/91 76/106/90 15/28/157
f 42/64/159 78/108/93 77/107/92 11/20/160
f 79/110/104 78/108/93 42/64/159 8/11/161
s 3
f 80/112/95 79/109/94 8/8/162 7/7/163
s 6
f 7/13/164 41/61/165 81/113/96 80/111/118
f 82/114/97 81/113/96 41/61/165 12/21/166
f 83/115/99 97/132/98 98/133/167 16/29/168
f 68/97/169 84/116/100 83/115/99 16/29/168
f 73/103/147 84/116/100 68/97/169 1/1/170
s 5
f 77/107/92 86/119/91 85/118/158 11/20/160
f 36/54/77 87/120/73 86/119/91 77/107/92
f 28/44/76 88/121/57 87/120/73 36/54/77
f 111/149/171 112/150/58 88/121/57 28/44/76
f 54/80/18 90/123/30 89/122/29 20/34/19
f 91/125/125 90/123/30 54/80/18 10/18/123
s 2
f 92/127/28 91/124/27 10/17/6 9/16/5
s 6
f 9/15/133 59/85/21 93/128/38 92/126/131
f 94/129/39 93/128/38 59/85/21 23/39/24
f 95/130/65 105/141/64 106/142/172 31/49/83
f 96/131/84 95/130/65 31/49/83 39/59/82
f 97/132/98 96/131/84 39/59/82 82/114/97
f 98/133/167 97/132/98 82/114/97 12/21/166
s 4
f 12/22/16 11/19/15 85/117/34 98/134/33
s 5
f 64/92/44 100/136/54 99/135/53 19/33/32
f 101/137/141 100/136/54 64/92/44 18/32/139
s 1
f 102/138/52 101/137/51 18/32/2 17/31/1
s 6
f 17/31/151 71/101/47 103/139/68 102/138/149
f 104/140/63 103/139/68 71/101/47 24/40/40
f 24/40/40 94/129/39 105/141/64 104/140/63
f 106/142/172 105/141/64 94/129/39 23/39/24
f 108/144/116 107/143/115 48/72/23 22/37/112
s 3
f 22/38/12 21/35/11 109/146/60 108/145/59
s 5
f 21/36/109 45/67/20 110/148/107 109/147/106
f 20/34/19 89/122/29 112/150/58 111/149/171
f 99/135/53 112/150/58 89/122/29 19/33/32
s off
f 20/34/173 111/149/174 106/142/175 23/39/176
f 31/49/177 106/142/178 111/149/179 28/44/180
f 28/44/181 44/66/182 49/73/183 31/49/184
f 44/66/185 110/148/186 107/143/187 49/73/188
f 48/72/189 107/143/190 110/148/191 45/67/192
f 45/67/193 20/34/194 23/39/195 48/72/196
