# This file uses centimeters as units for non-parametric coordinates.

mtllib neon.mtl
g default
v 1.852840 0.413895 2.148554
v 1.853106 0.376057 2.117772
v 1.851907 0.348030 2.092787
v 1.851907 0.465524 2.198704
v 1.736812 0.502753 2.105952
v 1.736812 0.437158 2.055777
v 1.736812 0.354599 2.053740
v 1.736812 0.526328 2.185100
v 1.276694 0.502753 2.105952
v 1.276694 0.437158 2.055777
v 1.276694 0.354599 2.053740
v 1.276694 0.526328 2.185100
v 0.732073 0.502753 2.105952
v 0.732073 0.437158 2.055777
v 0.732073 0.354599 2.053740
v 0.732073 0.526328 2.185100
v 0.266400 0.502753 2.105952
v 0.266400 0.437158 2.055777
v 0.266400 0.354599 2.053740
v 0.266400 0.526328 2.185100
v 0.146443 0.416500 2.154452
v 0.146959 0.372887 2.115691
v 0.147977 0.348030 2.092787
v 0.147977 0.465524 2.198704
v -0.157663 0.413895 2.148554
v -0.157397 0.376057 2.117772
v -0.158596 0.348030 2.092787
v -0.158596 0.465524 2.198704
v -0.273691 0.502753 2.105952
v -0.273691 0.437158 2.055777
v -0.273691 0.354599 2.053740
v -0.273691 0.526328 2.185100
v -0.733809 0.502753 2.105952
v -0.733809 0.437158 2.055777
v -0.733809 0.354599 2.053740
v -0.733809 0.526328 2.185100
v -1.278430 0.502753 2.105952
v -1.278430 0.437158 2.055777
v -1.278430 0.354599 2.053740
v -1.278430 0.526328 2.185100
v -1.744103 0.502753 2.105952
v -1.744103 0.437158 2.055777
v -1.744103 0.354599 2.053740
v -1.744103 0.526328 2.185100
v -1.864060 0.416500 2.154452
v -1.863544 0.372887 2.115691
v -1.862527 0.348030 2.092787
v -1.862527 0.465524 2.198704
v -1.858876 0.405437 -2.147923
v -1.859142 0.368068 -2.116575
v -1.857943 0.340420 -2.091170
v -1.857943 0.456305 -2.198845
v -1.742848 0.494928 -2.106665
v -1.742848 0.430096 -2.055507
v -1.742848 0.347577 -2.052227
v -1.742848 0.517308 -2.186159
v -1.282730 0.494928 -2.106665
v -1.282730 0.430096 -2.055507
v -1.282730 0.347577 -2.052227
v -1.282730 0.517308 -2.186159
v -0.738109 0.494928 -2.106665
v -0.738109 0.430096 -2.055507
v -0.738109 0.347577 -2.052227
v -0.738109 0.517308 -2.186159
v -0.272436 0.494928 -2.106665
v -0.272436 0.430096 -2.055507
v -0.272436 0.347577 -2.052227
v -0.272436 0.517308 -2.186159
v -0.152479 0.407953 -2.153860
v -0.152995 0.364930 -2.114446
v -0.154012 0.340420 -2.091170
v -0.154012 0.456305 -2.198845
v 0.139132 0.406764 -2.149400
v 0.138866 0.371511 -2.115689
v 0.140065 0.345573 -2.088541
v 0.140065 0.454214 -2.203521
v 0.255160 0.498747 -2.114046
v 0.255160 0.437378 -2.058782
v 0.255160 0.355246 -2.050145
v 0.255160 0.515912 -2.194827
v 0.715278 0.498747 -2.114046
v 0.715278 0.437378 -2.058782
v 0.715278 0.355246 -2.050145
v 0.715278 0.515912 -2.194827
v 1.259899 0.498747 -2.114046
v 1.259899 0.437378 -2.058782
v 1.259899 0.355246 -2.050145
v 1.259899 0.515912 -2.194827
v 1.725572 0.498747 -2.114046
v 1.725572 0.437378 -2.058782
v 1.725572 0.355246 -2.050145
v 1.725572 0.515912 -2.194827
v 1.845529 0.408888 -2.155488
v 1.845013 0.368518 -2.113361
v 1.843996 0.345573 -2.088541
v 1.843996 0.454214 -2.203521
vt 0.563204 0.110329
vt 0.524142 0.081949
vt 0.475858 0.081949
vt 0.578125 0.156250
vt 0.626409 0.064409
vt 0.548284 0.007647
vt 0.451716 0.007647
vt 0.656250 0.156250
vt 0.375000 0.312500
vt 0.400000 0.312500
vt 0.425000 0.312500
vt 0.600000 0.312500
vt 0.625000 0.312500
vt 0.375000 0.437813
vt 0.400000 0.437813
vt 0.425000 0.437813
vt 0.600000 0.437813
vt 0.625000 0.437813
vt 0.375000 0.563127
vt 0.400000 0.563127
vt 0.425000 0.563127
vt 0.600000 0.563127
vt 0.625000 0.563127
vt 0.375000 0.688440
vt 0.400000 0.688440
vt 0.425000 0.688440
vt 0.600000 0.688440
vt 0.625000 0.688440
vt 0.451716 0.992353
vt 0.548284 0.992353
vt 0.626409 0.935591
vt 0.656250 0.843750
vt 0.475858 0.918051
vt 0.524142 0.918051
vt 0.563204 0.889671
vt 0.578125 0.843750
vt 0.563204 0.110329
vt 0.524142 0.081949
vt 0.548284 0.007647
vt 0.626409 0.064409
vt 0.475858 0.081949
vt 0.451716 0.007647
vt 0.578125 0.156250
vt 0.656250 0.156250
vt 0.375000 0.312500
vt 0.400000 0.312500
vt 0.400000 0.437813
vt 0.375000 0.437813
vt 0.425000 0.312500
vt 0.425000 0.437813
vt 0.600000 0.312500
vt 0.625000 0.312500
vt 0.625000 0.437813
vt 0.600000 0.437813
vt 0.400000 0.563127
vt 0.375000 0.563127
vt 0.425000 0.563127
vt 0.625000 0.563127
vt 0.600000 0.563127
vt 0.400000 0.688440
vt 0.375000 0.688440
vt 0.425000 0.688440
vt 0.625000 0.688440
vt 0.600000 0.688440
vt 0.626409 0.935591
vt 0.548284 0.992353
vt 0.524142 0.918051
vt 0.563204 0.889671
vt 0.451716 0.992353
vt 0.475858 0.918051
vt 0.656250 0.843750
vt 0.578125 0.843750
vt 0.563204 0.110329
vt 0.524142 0.081949
vt 0.548284 0.007647
vt 0.626409 0.064409
vt 0.475858 0.081949
vt 0.451716 0.007647
vt 0.578125 0.156250
vt 0.656250 0.156250
vt 0.375000 0.312500
vt 0.400000 0.312500
vt 0.400000 0.437813
vt 0.375000 0.437813
vt 0.425000 0.312500
vt 0.425000 0.437813
vt 0.600000 0.312500
vt 0.625000 0.312500
vt 0.625000 0.437813
vt 0.600000 0.437813
vt 0.400000 0.563127
vt 0.375000 0.563127
vt 0.425000 0.563127
vt 0.625000 0.563127
vt 0.600000 0.563127
vt 0.400000 0.688440
vt 0.375000 0.688440
vt 0.425000 0.688440
vt 0.625000 0.688440
vt 0.600000 0.688440
vt 0.626409 0.935591
vt 0.548284 0.992353
vt 0.524142 0.918051
vt 0.563204 0.889671
vt 0.451716 0.992353
vt 0.475858 0.918051
vt 0.656250 0.843750
vt 0.578125 0.843750
vt 0.563204 0.110329
vt 0.524142 0.081949
vt 0.548284 0.007647
vt 0.626409 0.064409
vt 0.475858 0.081949
vt 0.451716 0.007647
vt 0.578125 0.156250
vt 0.656250 0.156250
vt 0.375000 0.312500
vt 0.400000 0.312500
vt 0.400000 0.437813
vt 0.375000 0.437813
vt 0.425000 0.312500
vt 0.425000 0.437813
vt 0.600000 0.312500
vt 0.625000 0.312500
vt 0.625000 0.437813
vt 0.600000 0.437813
vt 0.400000 0.563127
vt 0.375000 0.563127
vt 0.425000 0.563127
vt 0.625000 0.563127
vt 0.600000 0.563127
vt 0.400000 0.688440
vt 0.375000 0.688440
vt 0.425000 0.688440
vt 0.625000 0.688440
vt 0.600000 0.688440
vt 0.626409 0.935591
vt 0.548284 0.992353
vt 0.524142 0.918051
vt 0.563204 0.889671
vt 0.451716 0.992353
vt 0.475858 0.918051
vt 0.656250 0.843750
vt 0.578125 0.843750
vn 0.591951 0.598666 -0.539624
vn 0.541559 0.374121 -0.752826
vn 0.556251 0.401389 -0.727648
vn 0.587471 0.625120 -0.513909
vn 0.441948 0.208402 -0.872497
vn 0.441948 0.208402 -0.872496
vn 0.563723 0.715738 -0.412232
vn 0.563723 0.715738 -0.412232
vn 0.000000 0.607560 -0.794274
vn 0.000000 0.607560 -0.794274
vn 0.000000 0.607560 -0.794274
vn 0.000000 0.607560 -0.794274
vn 0.000000 0.024663 -0.999696
vn 0.000000 0.024663 -0.999696
vn 0.000000 0.024663 -0.999696
vn 0.000000 0.024663 -0.999696
vn 0.000000 0.958389 -0.285467
vn 0.000000 0.958389 -0.285467
vn 0.000000 0.958389 -0.285467
vn 0.000000 0.958389 -0.285467
vn 0.000000 0.607560 -0.794274
vn 0.000000 0.607560 -0.794274
vn 0.000000 0.024663 -0.999696
vn 0.000000 0.024663 -0.999696
vn 0.000000 0.958389 -0.285467
vn 0.000000 0.958389 -0.285467
vn 0.000000 0.607560 -0.794274
vn 0.000000 0.607560 -0.794274
vn 0.000000 0.024663 -0.999696
vn 0.000000 0.024663 -0.999696
vn 0.000000 0.958389 -0.285467
vn 0.000000 0.958389 -0.285467
vn -0.582162 0.622485 -0.523068
vn -0.555415 0.415933 -0.720079
vn -0.539228 0.385948 -0.748517
vn -0.586070 0.602949 -0.541272
vn -0.426666 0.200715 -0.881856
vn -0.426666 0.200715 -0.881856
vn -0.553409 0.720873 -0.417230
vn -0.553409 0.720873 -0.417230
vn 0.591951 0.598666 -0.539624
vn 0.541559 0.374121 -0.752826
vn 0.556251 0.401389 -0.727648
vn 0.587471 0.625120 -0.513910
vn 0.441948 0.208404 -0.872496
vn 0.441948 0.208404 -0.872496
vn 0.563723 0.715738 -0.412232
vn 0.563723 0.715738 -0.412232
vn 0.000000 0.607560 -0.794274
vn 0.000000 0.607560 -0.794274
vn 0.000000 0.607560 -0.794274
vn 0.000000 0.607560 -0.794274
vn 0.000000 0.024663 -0.999696
vn 0.000000 0.024663 -0.999696
vn 0.000000 0.024663 -0.999696
vn 0.000000 0.024663 -0.999696
vn 0.000000 0.958389 -0.285467
vn 0.000000 0.958389 -0.285467
vn 0.000000 0.958389 -0.285467
vn 0.000000 0.958389 -0.285467
vn 0.000000 0.607560 -0.794274
vn 0.000000 0.607560 -0.794274
vn 0.000000 0.024663 -0.999696
vn 0.000000 0.024663 -0.999696
vn 0.000000 0.958389 -0.285467
vn 0.000000 0.958389 -0.285467
vn 0.000000 0.607560 -0.794274
vn 0.000000 0.607560 -0.794274
vn 0.000000 0.024663 -0.999696
vn 0.000000 0.024663 -0.999696
vn 0.000000 0.958389 -0.285467
vn 0.000000 0.958389 -0.285467
vn -0.582162 0.622485 -0.523068
vn -0.555415 0.415933 -0.720079
vn -0.539228 0.385948 -0.748517
vn -0.586070 0.602949 -0.541272
vn -0.426666 0.200713 -0.881856
vn -0.426666 0.200713 -0.881856
vn -0.553409 0.720872 -0.417230
vn -0.553409 0.720872 -0.417230
vn -0.591951 0.606728 0.530543
vn -0.541559 0.385421 0.747104
vn -0.556251 0.412306 0.721518
vn -0.587471 0.632791 0.504433
vn -0.441948 0.221524 0.869258
vn -0.441948 0.221524 0.869258
vn -0.563724 0.721867 0.401401
vn -0.563724 0.721867 0.401401
vn 0.000000 0.619457 0.785030
vn 0.000000 0.619457 0.785030
vn 0.000000 0.619457 0.785031
vn 0.000000 0.619457 0.785031
vn 0.000000 0.039722 0.999211
vn 0.000000 0.039722 0.999211
vn 0.000000 0.039722 0.999211
vn 0.000000 0.039722 0.999211
vn 0.000000 0.962581 0.270995
vn 0.000000 0.962581 0.270995
vn 0.000000 0.962581 0.270995
vn 0.000000 0.962581 0.270995
vn 0.000000 0.619457 0.785031
vn 0.000000 0.619457 0.785031
vn 0.000000 0.039722 0.999211
vn 0.000000 0.039722 0.999211
vn 0.000000 0.962581 0.270995
vn 0.000000 0.962581 0.270995
vn 0.000000 0.619457 0.785030
vn 0.000000 0.619457 0.785030
vn 0.000000 0.039722 0.999211
vn 0.000000 0.039722 0.999211
vn 0.000000 0.962581 0.270995
vn 0.000000 0.962581 0.270995
vn 0.582161 0.630296 0.513631
vn 0.555415 0.426734 0.713731
vn 0.539228 0.397181 0.742617
vn 0.586069 0.611036 0.532127
vn 0.426666 0.213978 0.878732
vn 0.426666 0.213978 0.878732
vn 0.553407 0.727078 0.406322
vn 0.553407 0.727078 0.406322
vn -0.591952 0.639931 0.489981
vn -0.541560 0.433169 0.720470
vn -0.556252 0.458335 0.693190
vn -0.587472 0.664243 0.462232
vn -0.441945 0.277560 0.853021
vn -0.441945 0.277560 0.853021
vn -0.563723 0.746434 0.353628
vn -0.563723 0.746434 0.353629
vn 0.000000 0.669177 0.743103
vn 0.000000 0.669177 0.743103
vn 0.000000 0.669177 0.743104
vn 0.000000 0.669177 0.743104
vn 0.000000 0.104589 0.994516
vn 0.000000 0.104589 0.994516
vn 0.000000 0.104589 0.994516
vn 0.000000 0.104589 0.994516
vn 0.000000 0.978161 0.207851
vn 0.000000 0.978161 0.207851
vn 0.000000 0.978161 0.207851
vn 0.000000 0.978161 0.207851
vn 0.000000 0.669177 0.743104
vn 0.000000 0.669177 0.743104
vn 0.000000 0.104589 0.994516
vn 0.000000 0.104589 0.994516
vn 0.000000 0.978161 0.207850
vn 0.000000 0.978161 0.207850
vn 0.000000 0.669177 0.743103
vn 0.000000 0.669177 0.743103
vn 0.000000 0.104589 0.994516
vn 0.000000 0.104589 0.994516
vn 0.000000 0.978161 0.207851
vn 0.000000 0.978161 0.207851
vn 0.582161 0.662350 0.471573
vn 0.555415 0.472227 0.684482
vn 0.539228 0.444614 0.715229
vn 0.586069 0.644334 0.491281
vn 0.426664 0.270644 0.862965
vn 0.426664 0.270644 0.862965
vn 0.553408 0.751952 0.358200
vn 0.553408 0.751952 0.358200
s 1
g pCylinder5
usemtl phong1SG
f 1/1/1 2/2/2 6/6/3 5/5/4
f 2/2/2 3/3/5 7/7/6 6/6/3
f 4/4/7 1/1/1 5/5/4 8/8/8
s 2
f 5/9/9 6/10/10 10/15/11 9/14/12
s 3
f 6/10/13 7/11/14 11/16/15 10/15/16
s 4
f 8/12/17 5/13/18 9/18/19 12/17/20
s 2
f 9/14/12 10/15/11 14/20/21 13/19/22
s 3
f 10/15/16 11/16/15 15/21/23 14/20/24
s 4
f 12/17/20 9/18/19 13/23/25 16/22/26
s 2
f 13/19/22 14/20/21 18/25/27 17/24/28
s 3
f 14/20/24 15/21/23 19/26/29 18/25/30
s 4
f 16/22/26 13/23/25 17/28/31 20/27/32
s 5
f 17/31/33 18/30/34 22/34/35 21/35/36
f 18/30/34 19/29/37 23/33/38 22/34/35
f 20/32/39 17/31/33 21/35/36 24/36/40
s 6
f 25/37/41 26/38/42 30/39/43 29/40/44
f 26/38/42 27/41/45 31/42/46 30/39/43
f 28/43/47 25/37/41 29/40/44 32/44/48
s 7
f 29/45/49 30/46/50 34/47/51 33/48/52
s 8
f 30/46/53 31/49/54 35/50/55 34/47/56
s 9
f 32/51/57 29/52/58 33/53/59 36/54/60
s 7
f 33/48/52 34/47/51 38/55/61 37/56/62
s 8
f 34/47/56 35/50/55 39/57/63 38/55/64
s 9
f 36/54/60 33/53/59 37/58/65 40/59/66
s 7
f 37/56/62 38/55/61 42/60/67 41/61/68
s 8
f 38/55/64 39/57/63 43/62/69 42/60/70
s 9
f 40/59/66 37/58/65 41/63/71 44/64/72
s 10
f 41/65/73 42/66/74 46/67/75 45/68/76
f 42/66/74 43/69/77 47/70/78 46/67/75
f 44/71/79 41/65/73 45/68/76 48/72/80
s 11
f 49/73/81 50/74/82 54/75/83 53/76/84
f 50/74/82 51/77/85 55/78/86 54/75/83
f 52/79/87 49/73/81 53/76/84 56/80/88
s 12
f 53/81/89 54/82/90 58/83/91 57/84/92
s 13
f 54/82/93 55/85/94 59/86/95 58/83/96
s 14
f 56/87/97 53/88/98 57/89/99 60/90/100
s 12
f 57/84/92 58/83/91 62/91/101 61/92/102
s 13
f 58/83/96 59/86/95 63/93/103 62/91/104
s 14
f 60/90/100 57/89/99 61/94/105 64/95/106
s 12
f 61/92/102 62/91/101 66/96/107 65/97/108
s 13
f 62/91/104 63/93/103 67/98/109 66/96/110
s 14
f 64/95/106 61/94/105 65/99/111 68/100/112
s 15
f 65/101/113 66/102/114 70/103/115 69/104/116
f 66/102/114 67/105/117 71/106/118 70/103/115
f 68/107/119 65/101/113 69/104/116 72/108/120
s 16
f 73/109/121 74/110/122 78/111/123 77/112/124
f 74/110/122 75/113/125 79/114/126 78/111/123
f 76/115/127 73/109/121 77/112/124 80/116/128
s 17
f 77/117/129 78/118/130 82/119/131 81/120/132
s 18
f 78/118/133 79/121/134 83/122/135 82/119/136
s 19
f 80/123/137 77/124/138 81/125/139 84/126/140
s 17
f 81/120/132 82/119/131 86/127/141 85/128/142
s 18
f 82/119/136 83/122/135 87/129/143 86/127/144
s 19
f 84/126/140 81/125/139 85/130/145 88/131/146
s 17
f 85/128/142 86/127/141 90/132/147 89/133/148
s 18
f 86/127/144 87/129/143 91/134/149 90/132/150
s 19
f 88/131/146 85/130/145 89/135/151 92/136/152
s 20
f 89/137/153 90/138/154 94/139/155 93/140/156
f 90/138/154 91/141/157 95/142/158 94/139/155
f 92/143/159 89/137/153 93/140/156 96/144/160
